<svg xmlns="http://www.w3.org/2000/svg" xmlns:xlink="http://www.w3.org/1999/xlink" version="1.1" class="marks" width="2604.4074103057796" height="2180.354686043652" viewBox="0 0 1302.2037051528898 1090.177343021826"><rect width="1302.2037051528898" height="1090.177343021826" fill="#000000"/><g fill="none" stroke-miterlimit="10" transform="translate(55,27)"><g class="mark-group role-frame root" role="graphics-object" aria-roledescription="group mark container"><g transform="translate(0,0)"><path class="background" aria-hidden="true" d="M0,0h1237.2037051528898v1018.1773430218259h-1237.2037051528898Z" fill="#e5e5e5"/><g><g class="mark-group role-axis" role="graphics-symbol" aria-roledescription="axis" aria-label="X-axis titled 'PC1 (46.24 %)' for a linear scale with values from −1.0 to 0.6"><g transform="translate(0.5,1018.6773430218259)"><path class="background" aria-hidden="true" d="M0,0h0v0h0Z" pointer-events="none"/><g><g class="mark-rule role-axis-grid" pointer-events="none"><line transform="translate(157,0)" x2="0" y2="-1018.1773430218259" stroke="#FFFFFF" stroke-opacity="1" stroke-width="1" opacity="1"/><line transform="translate(317,0)" x2="0" y2="-1018.1773430218259" stroke="#FFFFFF" stroke-opacity="1" stroke-width="1" opacity="1"/><line transform="translate(477,0)" x2="0" y2="-1018.1773430218259" stroke="#FFFFFF" stroke-opacity="1" stroke-width="1" opacity="1"/><line transform="translate(637,0)" x2="0" y2="-1018.1773430218259" stroke="#FFFFFF" stroke-opacity="1" stroke-width="1" opacity="1"/><line transform="translate(797,0)" x2="0" y2="-1018.1773430218259" stroke="#FFFFFF" stroke-opacity="1" stroke-width="1" opacity="1"/><line transform="translate(957,0)" x2="0" y2="-1018.1773430218259" stroke="#FFFFFF" stroke-opacity="1" stroke-width="1" opacity="1"/><line transform="translate(1117,0)" x2="0" y2="-1018.1773430218259" stroke="#FFFFFF" stroke-opacity="1" stroke-width="1" opacity="1"/></g><g class="mark-rule role-axis-tick" pointer-events="none"><line transform="translate(157,0)" x2="0" y2="5.67" stroke="#7F7F7F" stroke-width="1" opacity="1"/><line transform="translate(317,0)" x2="0" y2="5.67" stroke="#7F7F7F" stroke-width="1" opacity="1"/><line transform="translate(477,0)" x2="0" y2="5.67" stroke="#7F7F7F" stroke-width="1" opacity="1"/><line transform="translate(637,0)" x2="0" y2="5.67" stroke="#7F7F7F" stroke-width="1" opacity="1"/><line transform="translate(797,0)" x2="0" y2="5.67" stroke="#7F7F7F" stroke-width="1" opacity="1"/><line transform="translate(957,0)" x2="0" y2="5.67" stroke="#7F7F7F" stroke-width="1" opacity="1"/><line transform="translate(1117,0)" x2="0" y2="5.67" stroke="#7F7F7F" stroke-width="1" opacity="1"/></g><g class="mark-text role-axis-label" pointer-events="none"><text text-anchor="middle" transform="translate(156.60190564793106,17.67)" font-family="sans-serif" font-size="10px" fill="#FFFFFF" opacity="1">−0.8</text><text text-anchor="middle" transform="translate(316.6019056479311,17.67)" font-family="sans-serif" font-size="10px" fill="#FFFFFF" opacity="1">−0.6</text><text text-anchor="middle" transform="translate(476.60190564793106,17.67)" font-family="sans-serif" font-size="10px" fill="#FFFFFF" opacity="1">−0.4</text><text text-anchor="middle" transform="translate(636.6019056479312,17.67)" font-family="sans-serif" font-size="10px" fill="#FFFFFF" opacity="1">−0.2</text><text text-anchor="middle" transform="translate(796.6019056479311,17.67)" font-family="sans-serif" font-size="10px" fill="#FFFFFF" opacity="1">0.0</text><text text-anchor="middle" transform="translate(956.601905647931,17.67)" font-family="sans-serif" font-size="10px" fill="#FFFFFF" opacity="1">0.2</text><text text-anchor="middle" transform="translate(1116.6019056479308,17.67)" font-family="sans-serif" font-size="10px" fill="#FFFFFF" opacity="1">0.4</text></g><g class="mark-text role-axis-title" pointer-events="none"><text text-anchor="middle" transform="translate(618.6018525764449,36.67)" font-family="sans-serif" font-size="16px" font-weight="normal" fill="#FFFFFF" opacity="1">PC1 (46.24 %)</text></g></g><path class="foreground" aria-hidden="true" d="" pointer-events="none" display="none"/></g></g><g class="mark-group role-axis" role="graphics-symbol" aria-roledescription="axis" aria-label="Y-axis titled 'PC3 (11.10 %)' for a linear scale with values from −0.8 to 0.5"><g transform="translate(0.5,0.5)"><path class="background" aria-hidden="true" d="M0,0h0v0h0Z" pointer-events="none"/><g><g class="mark-rule role-axis-grid" pointer-events="none"><line transform="translate(0,1010)" x2="1237.2037051528898" y2="0" stroke="#FFFFFF" stroke-opacity="1" stroke-width="1" opacity="1"/><line transform="translate(0,930)" x2="1237.2037051528898" y2="0" stroke="#FFFFFF" stroke-opacity="1" stroke-width="1" opacity="1"/><line transform="translate(0,850)" x2="1237.2037051528898" y2="0" stroke="#FFFFFF" stroke-opacity="1" stroke-width="1" opacity="1"/><line transform="translate(0,770)" x2="1237.2037051528898" y2="0" stroke="#FFFFFF" stroke-opacity="1" stroke-width="1" opacity="1"/><line transform="translate(0,690)" x2="1237.2037051528898" y2="0" stroke="#FFFFFF" stroke-opacity="1" stroke-width="1" opacity="1"/><line transform="translate(0,610)" x2="1237.2037051528898" y2="0" stroke="#FFFFFF" stroke-opacity="1" stroke-width="1" opacity="1"/><line transform="translate(0,530)" x2="1237.2037051528898" y2="0" stroke="#FFFFFF" stroke-opacity="1" stroke-width="1" opacity="1"/><line transform="translate(0,450)" x2="1237.2037051528898" y2="0" stroke="#FFFFFF" stroke-opacity="1" stroke-width="1" opacity="1"/><line transform="translate(0,370)" x2="1237.2037051528898" y2="0" stroke="#FFFFFF" stroke-opacity="1" stroke-width="1" opacity="1"/><line transform="translate(0,290)" x2="1237.2037051528898" y2="0" stroke="#FFFFFF" stroke-opacity="1" stroke-width="1" opacity="1"/><line transform="translate(0,210)" x2="1237.2037051528898" y2="0" stroke="#FFFFFF" stroke-opacity="1" stroke-width="1" opacity="1"/><line transform="translate(0,130)" x2="1237.2037051528898" y2="0" stroke="#FFFFFF" stroke-opacity="1" stroke-width="1" opacity="1"/><line transform="translate(0,50)" x2="1237.2037051528898" y2="0" stroke="#FFFFFF" stroke-opacity="1" stroke-width="1" opacity="1"/></g><g class="mark-rule role-axis-tick" pointer-events="none"><line transform="translate(0,1010)" x2="-5.67" y2="0" stroke="#7F7F7F" stroke-width="1" opacity="1"/><line transform="translate(0,930)" x2="-5.67" y2="0" stroke="#7F7F7F" stroke-width="1" opacity="1"/><line transform="translate(0,850)" x2="-5.67" y2="0" stroke="#7F7F7F" stroke-width="1" opacity="1"/><line transform="translate(0,770)" x2="-5.67" y2="0" stroke="#7F7F7F" stroke-width="1" opacity="1"/><line transform="translate(0,690)" x2="-5.67" y2="0" stroke="#7F7F7F" stroke-width="1" opacity="1"/><line transform="translate(0,610)" x2="-5.67" y2="0" stroke="#7F7F7F" stroke-width="1" opacity="1"/><line transform="translate(0,530)" x2="-5.67" y2="0" stroke="#7F7F7F" stroke-width="1" opacity="1"/><line transform="translate(0,450)" x2="-5.67" y2="0" stroke="#7F7F7F" stroke-width="1" opacity="1"/><line transform="translate(0,370)" x2="-5.67" y2="0" stroke="#7F7F7F" stroke-width="1" opacity="1"/><line transform="translate(0,290)" x2="-5.67" y2="0" stroke="#7F7F7F" stroke-width="1" opacity="1"/><line transform="translate(0,210)" x2="-5.67" y2="0" stroke="#7F7F7F" stroke-width="1" opacity="1"/><line transform="translate(0,130)" x2="-5.67" y2="0" stroke="#7F7F7F" stroke-width="1" opacity="1"/><line transform="translate(0,50)" x2="-5.67" y2="0" stroke="#7F7F7F" stroke-width="1" opacity="1"/></g><g class="mark-text role-axis-label" pointer-events="none"><text text-anchor="end" transform="translate(-9.67,1012.8160500465405)" font-family="sans-serif" font-size="10px" fill="#FFFFFF" opacity="1">−0.8</text><text text-anchor="end" transform="translate(-9.67,932.8160500465405)" font-family="sans-serif" font-size="10px" fill="#FFFFFF" opacity="1">−0.7</text><text text-anchor="end" transform="translate(-9.67,852.8160500465405)" font-family="sans-serif" font-size="10px" fill="#FFFFFF" opacity="1">−0.6</text><text text-anchor="end" transform="translate(-9.67,772.8160500465405)" font-family="sans-serif" font-size="10px" fill="#FFFFFF" opacity="1">−0.5</text><text text-anchor="end" transform="translate(-9.67,692.8160500465406)" font-family="sans-serif" font-size="10px" fill="#FFFFFF" opacity="1">−0.4</text><text text-anchor="end" transform="translate(-9.67,612.8160500465405)" font-family="sans-serif" font-size="10px" fill="#FFFFFF" opacity="1">−0.3</text><text text-anchor="end" transform="translate(-9.67,532.8160500465406)" font-family="sans-serif" font-size="10px" fill="#FFFFFF" opacity="1">−0.2</text><text text-anchor="end" transform="translate(-9.67,452.81605004654045)" font-family="sans-serif" font-size="10px" fill="#FFFFFF" opacity="1">−0.1</text><text text-anchor="end" transform="translate(-9.67,372.8160500465405)" font-family="sans-serif" font-size="10px" fill="#FFFFFF" opacity="1">0.0</text><text text-anchor="end" transform="translate(-9.67,292.81605004654045)" font-family="sans-serif" font-size="10px" fill="#FFFFFF" opacity="1">0.1</text><text text-anchor="end" transform="translate(-9.67,212.81605004654043)" font-family="sans-serif" font-size="10px" fill="#FFFFFF" opacity="1">0.2</text><text text-anchor="end" transform="translate(-9.67,132.81605004654048)" font-family="sans-serif" font-size="10px" fill="#FFFFFF" opacity="1">0.3</text><text text-anchor="end" transform="translate(-9.67,52.81605004654043)" font-family="sans-serif" font-size="10px" fill="#FFFFFF" opacity="1">0.4</text></g><g class="mark-text role-axis-title" pointer-events="none"><text text-anchor="middle" transform="translate(-33.4112109375,509.08867151091295) rotate(-90) translate(0,-3)" font-family="sans-serif" font-size="16px" font-weight="normal" fill="#FFFFFF" opacity="1">PC3 (11.10 %)</text></g></g><path class="foreground" aria-hidden="true" d="" pointer-events="none" display="none"/></g></g><g class="mark-symbol role-mark" role="graphics-symbol" aria-roledescription="symbol mark container"><path transform="translate(1204.2199138988994,70.90642453088628)" d="M5,0A5,5,0,1,1,-5,0A5,5,0,1,1,5,0" fill="rgb(255,0,0)" opacity="0.5"/><path transform="translate(94.62476286345253,329.83281452522573)" d="M5,0A5,5,0,1,1,-5,0A5,5,0,1,1,5,0" fill="rgb(255,0,0)" opacity="0.5"/><path transform="translate(1131.4899714791302,515.0223226584916)" d="M5,0A5,5,0,1,1,-5,0A5,5,0,1,1,5,0" fill="rgb(255,0,0)" opacity="0.5"/><path transform="translate(1196.9914935422937,0)" d="M5,0A5,5,0,1,1,-5,0A5,5,0,1,1,5,0" fill="rgb(255,0,0)" opacity="0.5"/><path transform="translate(12.111095604476938,357.0658144809696)" d="M5,0A5,5,0,1,1,-5,0A5,5,0,1,1,5,0" fill="rgb(255,0,0)" opacity="0.5"/><path transform="translate(1208.2715303938278,247.86021539370893)" d="M5,0A5,5,0,1,1,-5,0A5,5,0,1,1,5,0" fill="rgb(0,0,255)" opacity="0.5"/><path transform="translate(1222.8543660427804,235.2397798474285)" d="M5,0A5,5,0,1,1,-5,0A5,5,0,1,1,5,0" fill="rgb(0,0,255)" opacity="0.5"/><path transform="translate(0,329.0057943558055)" d="M5,0A5,5,0,1,1,-5,0A5,5,0,1,1,5,0" fill="rgb(0,0,255)" opacity="0.5"/><path transform="translate(966.2778804513932,1018.1773430218259)" d="M5,0A5,5,0,1,1,-5,0A5,5,0,1,1,5,0" fill="rgb(0,0,255)" opacity="0.5"/><path transform="translate(1232.4455073599686,353.66040584069475)" d="M5,0A5,5,0,1,1,-5,0A5,5,0,1,1,5,0" fill="rgb(0,0,255)" opacity="0.5"/><path transform="translate(14.652491247279896,320.040821464018)" d="M5,0A5,5,0,1,1,-5,0A5,5,0,1,1,5,0" fill="rgb(242,115,4)" opacity="0.5"/><path transform="translate(1237.2037051528898,348.4704033395085)" d="M5,0A5,5,0,1,1,-5,0A5,5,0,1,1,5,0" fill="rgb(242,115,4)" opacity="0.5"/><path transform="translate(1224.4950869878007,309.84017224552605)" d="M5,0A5,5,0,1,1,-5,0A5,5,0,1,1,5,0" fill="rgb(242,115,4)" opacity="0.5"/><path transform="translate(113.44455925219508,325.2803347376888)" d="M5,0A5,5,0,1,1,-5,0A5,5,0,1,1,5,0" fill="rgb(242,115,4)" opacity="0.5"/><path transform="translate(1089.9462204425786,786.8381042563278)" d="M5,0A5,5,0,1,1,-5,0A5,5,0,1,1,5,0" fill="rgb(242,115,4)" opacity="0.5"/></g><g class="mark-group role-title"><g transform="translate(596.3962471076949,-22)"><path class="background" aria-hidden="true" d="M0,0h0v0h0Z" pointer-events="none"/><g><g class="mark-text role-title-text" role="graphics-symbol" aria-roledescription="title" aria-label="Title text 'Emperor PCoA'" pointer-events="none"><text text-anchor="middle" transform="translate(0,10)" font-family="sans-serif" font-size="13px" font-weight="bold" fill="#FFFFFF" opacity="1">Emperor PCoA</text></g></g><path class="foreground" aria-hidden="true" d="" pointer-events="none" display="none"/></g></g></g><path class="foreground" aria-hidden="true" d="" display="none"/></g></g></g></svg>