<svg xmlns="http://www.w3.org/2000/svg" xmlns:xlink="http://www.w3.org/1999/xlink" version="1.1" class="marks" width="2604.4074103057796" height="2588.0546037112013" viewBox="0 0 1302.2037051528898 1294.0273018556006"><rect width="1302.2037051528898" height="1294.0273018556006" fill="#000000"/><g fill="none" stroke-miterlimit="10" transform="translate(55,27)"><g class="mark-group role-frame root" role="graphics-object" aria-roledescription="group mark container"><g transform="translate(0,0)"><path class="background" aria-hidden="true" d="M0,0h1237.2037051528898v1222.0273018556006h-1237.2037051528898Z" fill="#e5e5e5"/><g><g class="mark-group role-axis" role="graphics-symbol" aria-roledescription="axis" aria-label="X-axis titled 'PC1 (46.24 %)' for a linear scale with values from −1.0 to 0.6"><g transform="translate(0.5,1222.5273018556006)"><path class="background" aria-hidden="true" d="M0,0h0v0h0Z" pointer-events="none"/><g><g class="mark-rule role-axis-grid" pointer-events="none"><line transform="translate(157,0)" x2="0" y2="-1222.0273018556006" stroke="#FFFFFF" stroke-opacity="1" stroke-width="1" opacity="1"/><line transform="translate(317,0)" x2="0" y2="-1222.0273018556006" stroke="#FFFFFF" stroke-opacity="1" stroke-width="1" opacity="1"/><line transform="translate(477,0)" x2="0" y2="-1222.0273018556006" stroke="#FFFFFF" stroke-opacity="1" stroke-width="1" opacity="1"/><line transform="translate(637,0)" x2="0" y2="-1222.0273018556006" stroke="#FFFFFF" stroke-opacity="1" stroke-width="1" opacity="1"/><line transform="translate(797,0)" x2="0" y2="-1222.0273018556006" stroke="#FFFFFF" stroke-opacity="1" stroke-width="1" opacity="1"/><line transform="translate(957,0)" x2="0" y2="-1222.0273018556006" stroke="#FFFFFF" stroke-opacity="1" stroke-width="1" opacity="1"/><line transform="translate(1117,0)" x2="0" y2="-1222.0273018556006" stroke="#FFFFFF" stroke-opacity="1" stroke-width="1" opacity="1"/></g><g class="mark-rule role-axis-tick" pointer-events="none"><line transform="translate(157,0)" x2="0" y2="5.67" stroke="#7F7F7F" stroke-width="1" opacity="1"/><line transform="translate(317,0)" x2="0" y2="5.67" stroke="#7F7F7F" stroke-width="1" opacity="1"/><line transform="translate(477,0)" x2="0" y2="5.67" stroke="#7F7F7F" stroke-width="1" opacity="1"/><line transform="translate(637,0)" x2="0" y2="5.67" stroke="#7F7F7F" stroke-width="1" opacity="1"/><line transform="translate(797,0)" x2="0" y2="5.67" stroke="#7F7F7F" stroke-width="1" opacity="1"/><line transform="translate(957,0)" x2="0" y2="5.67" stroke="#7F7F7F" stroke-width="1" opacity="1"/><line transform="translate(1117,0)" x2="0" y2="5.67" stroke="#7F7F7F" stroke-width="1" opacity="1"/></g><g class="mark-text role-axis-label" pointer-events="none"><text text-anchor="middle" transform="translate(156.60190564793106,17.67)" font-family="sans-serif" font-size="10px" fill="#FFFFFF" opacity="1">−0.8</text><text text-anchor="middle" transform="translate(316.6019056479311,17.67)" font-family="sans-serif" font-size="10px" fill="#FFFFFF" opacity="1">−0.6</text><text text-anchor="middle" transform="translate(476.60190564793106,17.67)" font-family="sans-serif" font-size="10px" fill="#FFFFFF" opacity="1">−0.4</text><text text-anchor="middle" transform="translate(636.6019056479312,17.67)" font-family="sans-serif" font-size="10px" fill="#FFFFFF" opacity="1">−0.2</text><text text-anchor="middle" transform="translate(796.6019056479311,17.67)" font-family="sans-serif" font-size="10px" fill="#FFFFFF" opacity="1">0.0</text><text text-anchor="middle" transform="translate(956.601905647931,17.67)" font-family="sans-serif" font-size="10px" fill="#FFFFFF" opacity="1">0.2</text><text text-anchor="middle" transform="translate(1116.6019056479308,17.67)" font-family="sans-serif" font-size="10px" fill="#FFFFFF" opacity="1">0.4</text></g><g class="mark-text role-axis-title" pointer-events="none"><text text-anchor="middle" transform="translate(618.6018525764449,36.67)" font-family="sans-serif" font-size="16px" font-weight="normal" fill="#FFFFFF" opacity="1">PC1 (46.24 %)</text></g></g><path class="foreground" aria-hidden="true" d="" pointer-events="none" display="none"/></g></g><g class="mark-group role-axis" role="graphics-symbol" aria-roledescription="axis" aria-label="Y-axis titled 'PC2 (11.71 %)' for a linear scale with values from −0.7 to 0.9"><g transform="translate(0.5,0.5)"><path class="background" aria-hidden="true" d="M0,0h0v0h0Z" pointer-events="none"/><g><g class="mark-rule role-axis-grid" pointer-events="none"><line transform="translate(0,1171)" x2="1237.2037051528898" y2="0" stroke="#FFFFFF" stroke-opacity="1" stroke-width="1" opacity="1"/><line transform="translate(0,1011)" x2="1237.2037051528898" y2="0" stroke="#FFFFFF" stroke-opacity="1" stroke-width="1" opacity="1"/><line transform="translate(0,851)" x2="1237.2037051528898" y2="0" stroke="#FFFFFF" stroke-opacity="1" stroke-width="1" opacity="1"/><line transform="translate(0,691)" x2="1237.2037051528898" y2="0" stroke="#FFFFFF" stroke-opacity="1" stroke-width="1" opacity="1"/><line transform="translate(0,531)" x2="1237.2037051528898" y2="0" stroke="#FFFFFF" stroke-opacity="1" stroke-width="1" opacity="1"/><line transform="translate(0,371)" x2="1237.2037051528898" y2="0" stroke="#FFFFFF" stroke-opacity="1" stroke-width="1" opacity="1"/><line transform="translate(0,211)" x2="1237.2037051528898" y2="0" stroke="#FFFFFF" stroke-opacity="1" stroke-width="1" opacity="1"/><line transform="translate(0,51)" x2="1237.2037051528898" y2="0" stroke="#FFFFFF" stroke-opacity="1" stroke-width="1" opacity="1"/></g><g class="mark-rule role-axis-tick" pointer-events="none"><line transform="translate(0,1171)" x2="-5.67" y2="0" stroke="#7F7F7F" stroke-width="1" opacity="1"/><line transform="translate(0,1011)" x2="-5.67" y2="0" stroke="#7F7F7F" stroke-width="1" opacity="1"/><line transform="translate(0,851)" x2="-5.67" y2="0" stroke="#7F7F7F" stroke-width="1" opacity="1"/><line transform="translate(0,691)" x2="-5.67" y2="0" stroke="#7F7F7F" stroke-width="1" opacity="1"/><line transform="translate(0,531)" x2="-5.67" y2="0" stroke="#7F7F7F" stroke-width="1" opacity="1"/><line transform="translate(0,371)" x2="-5.67" y2="0" stroke="#7F7F7F" stroke-width="1" opacity="1"/><line transform="translate(0,211)" x2="-5.67" y2="0" stroke="#7F7F7F" stroke-width="1" opacity="1"/><line transform="translate(0,51)" x2="-5.67" y2="0" stroke="#7F7F7F" stroke-width="1" opacity="1"/></g><g class="mark-text role-axis-label" pointer-events="none"><text text-anchor="end" transform="translate(-9.67,1174.0529327820436)" font-family="sans-serif" font-size="10px" fill="#FFFFFF" opacity="1">−0.6</text><text text-anchor="end" transform="translate(-9.67,1014.0529327820436)" font-family="sans-serif" font-size="10px" fill="#FFFFFF" opacity="1">−0.4</text><text text-anchor="end" transform="translate(-9.67,854.0529327820436)" font-family="sans-serif" font-size="10px" fill="#FFFFFF" opacity="1">−0.2</text><text text-anchor="end" transform="translate(-9.67,694.0529327820436)" font-family="sans-serif" font-size="10px" fill="#FFFFFF" opacity="1">0.0</text><text text-anchor="end" transform="translate(-9.67,534.0529327820436)" font-family="sans-serif" font-size="10px" fill="#FFFFFF" opacity="1">0.2</text><text text-anchor="end" transform="translate(-9.67,374.05293278204357)" font-family="sans-serif" font-size="10px" fill="#FFFFFF" opacity="1">0.4</text><text text-anchor="end" transform="translate(-9.67,214.0529327820437)" font-family="sans-serif" font-size="10px" fill="#FFFFFF" opacity="1">0.6</text><text text-anchor="end" transform="translate(-9.67,54.05293278204359)" font-family="sans-serif" font-size="10px" fill="#FFFFFF" opacity="1">0.8</text></g><g class="mark-text role-axis-title" pointer-events="none"><text text-anchor="middle" transform="translate(-33.4112109375,611.0136509278003) rotate(-90) translate(0,-3)" font-family="sans-serif" font-size="16px" font-weight="normal" fill="#FFFFFF" opacity="1">PC2 (11.71 %)</text></g></g><path class="foreground" aria-hidden="true" d="" pointer-events="none" display="none"/></g></g><g class="mark-symbol role-mark" role="graphics-symbol" aria-roledescription="symbol mark container"><path transform="translate(1204.2199138988994,686.7475762557619)" d="M5,0A5,5,0,1,1,-5,0A5,5,0,1,1,5,0" fill="rgb(255,0,0)" opacity="0.5"/><path transform="translate(94.62476286345253,1222.0273018556006)" d="M5,0A5,5,0,1,1,-5,0A5,5,0,1,1,5,0" fill="rgb(255,0,0)" opacity="0.5"/><path transform="translate(1131.4899714791302,683.9898254860441)" d="M5,0A5,5,0,1,1,-5,0A5,5,0,1,1,5,0" fill="rgb(255,0,0)" opacity="0.5"/><path transform="translate(1196.9914935422937,667.5679386944586)" d="M5,0A5,5,0,1,1,-5,0A5,5,0,1,1,5,0" fill="rgb(255,0,0)" opacity="0.5"/><path transform="translate(12.111095604476938,0)" d="M5,0A5,5,0,1,1,-5,0A5,5,0,1,1,5,0" fill="rgb(255,0,0)" opacity="0.5"/><path transform="translate(1208.2715303938278,680.5002004349252)" d="M5,0A5,5,0,1,1,-5,0A5,5,0,1,1,5,0" fill="rgb(0,0,255)" opacity="0.5"/><path transform="translate(1222.8543660427804,675.3927901884891)" d="M5,0A5,5,0,1,1,-5,0A5,5,0,1,1,5,0" fill="rgb(0,0,255)" opacity="0.5"/><path transform="translate(0,524.5657011249662)" d="M5,0A5,5,0,1,1,-5,0A5,5,0,1,1,5,0" fill="rgb(0,0,255)" opacity="0.5"/><path transform="translate(966.2778804513932,705.454300282069)" d="M5,0A5,5,0,1,1,-5,0A5,5,0,1,1,5,0" fill="rgb(0,0,255)" opacity="0.5"/><path transform="translate(1232.4455073599686,678.988308267147)" d="M5,0A5,5,0,1,1,-5,0A5,5,0,1,1,5,0" fill="rgb(0,0,255)" opacity="0.5"/><path transform="translate(14.652491247279896,728.1266188906003)" d="M5,0A5,5,0,1,1,-5,0A5,5,0,1,1,5,0" fill="rgb(242,115,4)" opacity="0.5"/><path transform="translate(1237.2037051528898,680.3532997310308)" d="M5,0A5,5,0,1,1,-5,0A5,5,0,1,1,5,0" fill="rgb(242,115,4)" opacity="0.5"/><path transform="translate(1224.4950869878007,694.3117919641692)" d="M5,0A5,5,0,1,1,-5,0A5,5,0,1,1,5,0" fill="rgb(242,115,4)" opacity="0.5"/><path transform="translate(113.44455925219508,1045.722634087683)" d="M5,0A5,5,0,1,1,-5,0A5,5,0,1,1,5,0" fill="rgb(242,115,4)" opacity="0.5"/><path transform="translate(1089.9462204425786,692.0457044677099)" d="M5,0A5,5,0,1,1,-5,0A5,5,0,1,1,5,0" fill="rgb(242,115,4)" opacity="0.5"/></g><g class="mark-group role-title"><g transform="translate(596.3962471076949,-22)"><path class="background" aria-hidden="true" d="M0,0h0v0h0Z" pointer-events="none"/><g><g class="mark-text role-title-text" role="graphics-symbol" aria-roledescription="title" aria-label="Title text 'Emperor PCoA'" pointer-events="none"><text text-anchor="middle" transform="translate(0,10)" font-family="sans-serif" font-size="13px" font-weight="bold" fill="#FFFFFF" opacity="1">Emperor PCoA</text></g></g><path class="foreground" aria-hidden="true" d="" pointer-events="none" display="none"/></g></g></g><path class="foreground" aria-hidden="true" d="" display="none"/></g></g></g></svg>